<mxfile host="app.diagrams.net" modified="2024-01-24T03:17:42.784Z" agent="Mozilla/5.0 (X11; Linux x86_64) AppleWebKit/537.36 (KHTML, like Gecko) Chrome/120.0.0.0 Safari/537.36" etag="Ii6KIFsv6H7wOT4Yuk8b" version="23.0.0" type="github">
  <diagram name="第 1 页" id="1S-oWMN58DFkhCVR-oqF">
    <mxGraphModel dx="1434" dy="758" grid="1" gridSize="10" guides="1" tooltips="1" connect="1" arrows="1" fold="1" page="1" pageScale="1" pageWidth="827" pageHeight="1169" math="0" shadow="0">
      <root>
        <mxCell id="0" />
        <mxCell id="1" parent="0" />
        <mxCell id="vZ_JJnpRFsUOViejhZNN-1" value="管理员" style="shape=umlActor;verticalLabelPosition=bottom;verticalAlign=top;html=1;outlineConnect=0;" vertex="1" parent="1">
          <mxGeometry x="160" y="305" width="30" height="60" as="geometry" />
        </mxCell>
        <mxCell id="vZ_JJnpRFsUOViejhZNN-4" value="登录系统" style="ellipse;whiteSpace=wrap;html=1;" vertex="1" parent="1">
          <mxGeometry x="250" y="190" width="120" height="50" as="geometry" />
        </mxCell>
        <mxCell id="vZ_JJnpRFsUOViejhZNN-5" value="添加图书信息" style="ellipse;whiteSpace=wrap;html=1;" vertex="1" parent="1">
          <mxGeometry x="250" y="250" width="120" height="50" as="geometry" />
        </mxCell>
        <mxCell id="vZ_JJnpRFsUOViejhZNN-6" value="删除图书信息" style="ellipse;whiteSpace=wrap;html=1;" vertex="1" parent="1">
          <mxGeometry x="250" y="310" width="120" height="50" as="geometry" />
        </mxCell>
        <mxCell id="vZ_JJnpRFsUOViejhZNN-7" value="管理用户信息" style="ellipse;whiteSpace=wrap;html=1;" vertex="1" parent="1">
          <mxGeometry x="250" y="370" width="120" height="50" as="geometry" />
        </mxCell>
        <mxCell id="vZ_JJnpRFsUOViejhZNN-8" value="生成图书报表" style="ellipse;whiteSpace=wrap;html=1;" vertex="1" parent="1">
          <mxGeometry x="250" y="430" width="120" height="50" as="geometry" />
        </mxCell>
        <mxCell id="vZ_JJnpRFsUOViejhZNN-10" value="" style="endArrow=open;html=1;rounded=0;exitX=1;exitY=0.3333333333333333;exitDx=0;exitDy=0;exitPerimeter=0;entryX=0;entryY=0.5;entryDx=0;entryDy=0;targetPerimeterSpacing=0;startArrow=none;startFill=0;endFill=0;" edge="1" parent="1" source="vZ_JJnpRFsUOViejhZNN-1" target="vZ_JJnpRFsUOViejhZNN-4">
          <mxGeometry width="50" height="50" relative="1" as="geometry">
            <mxPoint x="190" y="290" as="sourcePoint" />
            <mxPoint x="240" y="240" as="targetPoint" />
          </mxGeometry>
        </mxCell>
        <mxCell id="vZ_JJnpRFsUOViejhZNN-15" value="" style="endArrow=open;html=1;rounded=0;exitX=1;exitY=0.3333333333333333;exitDx=0;exitDy=0;exitPerimeter=0;entryX=0;entryY=0.5;entryDx=0;entryDy=0;targetPerimeterSpacing=0;startArrow=none;startFill=0;endFill=0;" edge="1" parent="1" source="vZ_JJnpRFsUOViejhZNN-1" target="vZ_JJnpRFsUOViejhZNN-5">
          <mxGeometry width="50" height="50" relative="1" as="geometry">
            <mxPoint x="193" y="321" as="sourcePoint" />
            <mxPoint x="260" y="225" as="targetPoint" />
          </mxGeometry>
        </mxCell>
        <mxCell id="vZ_JJnpRFsUOViejhZNN-16" value="" style="endArrow=open;html=1;rounded=0;exitX=1;exitY=0.3333333333333333;exitDx=0;exitDy=0;exitPerimeter=0;entryX=0;entryY=0.5;entryDx=0;entryDy=0;targetPerimeterSpacing=0;startArrow=none;startFill=0;endFill=0;" edge="1" parent="1" source="vZ_JJnpRFsUOViejhZNN-1" target="vZ_JJnpRFsUOViejhZNN-6">
          <mxGeometry width="50" height="50" relative="1" as="geometry">
            <mxPoint x="203" y="331" as="sourcePoint" />
            <mxPoint x="270" y="235" as="targetPoint" />
          </mxGeometry>
        </mxCell>
        <mxCell id="vZ_JJnpRFsUOViejhZNN-17" value="" style="endArrow=open;html=1;rounded=0;entryX=0;entryY=0.5;entryDx=0;entryDy=0;targetPerimeterSpacing=0;startArrow=none;startFill=0;endFill=0;exitX=1;exitY=0.3333333333333333;exitDx=0;exitDy=0;exitPerimeter=0;" edge="1" parent="1" source="vZ_JJnpRFsUOViejhZNN-1" target="vZ_JJnpRFsUOViejhZNN-7">
          <mxGeometry width="50" height="50" relative="1" as="geometry">
            <mxPoint x="190" y="330" as="sourcePoint" />
            <mxPoint x="280" y="245" as="targetPoint" />
          </mxGeometry>
        </mxCell>
        <mxCell id="vZ_JJnpRFsUOViejhZNN-18" value="" style="endArrow=open;html=1;rounded=0;entryX=0;entryY=0.5;entryDx=0;entryDy=0;targetPerimeterSpacing=0;startArrow=none;startFill=0;endFill=0;exitX=1;exitY=0.3333333333333333;exitDx=0;exitDy=0;exitPerimeter=0;" edge="1" parent="1" source="vZ_JJnpRFsUOViejhZNN-1" target="vZ_JJnpRFsUOViejhZNN-8">
          <mxGeometry width="50" height="50" relative="1" as="geometry">
            <mxPoint x="223" y="351" as="sourcePoint" />
            <mxPoint x="290" y="255" as="targetPoint" />
          </mxGeometry>
        </mxCell>
        <mxCell id="vZ_JJnpRFsUOViejhZNN-19" value="i" style="endArrow=open;dashed=1;html=1;dashPattern=1 3;strokeWidth=2;rounded=0;exitX=1;exitY=0.5;exitDx=0;exitDy=0;entryX=0;entryY=0.5;entryDx=0;entryDy=0;endFill=0;" edge="1" parent="1" source="vZ_JJnpRFsUOViejhZNN-5" target="vZ_JJnpRFsUOViejhZNN-20">
          <mxGeometry width="50" height="50" relative="1" as="geometry">
            <mxPoint x="389" y="220" as="sourcePoint" />
            <mxPoint x="439" y="170" as="targetPoint" />
          </mxGeometry>
        </mxCell>
        <mxCell id="vZ_JJnpRFsUOViejhZNN-21" value="&amp;lt;&amp;lt;include&amp;gt;&amp;gt;" style="edgeLabel;html=1;align=center;verticalAlign=middle;resizable=0;points=[];" vertex="1" connectable="0" parent="vZ_JJnpRFsUOViejhZNN-19">
          <mxGeometry x="0.0123" y="-2" relative="1" as="geometry">
            <mxPoint as="offset" />
          </mxGeometry>
        </mxCell>
        <mxCell id="vZ_JJnpRFsUOViejhZNN-20" value="保存图书信息" style="ellipse;whiteSpace=wrap;html=1;" vertex="1" parent="1">
          <mxGeometry x="490" y="250" width="120" height="50" as="geometry" />
        </mxCell>
      </root>
    </mxGraphModel>
  </diagram>
</mxfile>
